<svg width="16" height="16" fill="none" xmlns="http://www.w3.org/2000/svg"><path d="M3.785 7.297c0-.219.074-.402.223-.55.148-.153.35-.23.603-.23.258 0 .46.077.604.23a.748.748 0 0 1 .223.55.748.748 0 0 1-.223.55c-.145.15-.346.223-.604.223-.254 0-.455-.074-.603-.222a.748.748 0 0 1-.223-.551Zm3.34 0c0-.219.074-.402.223-.55.148-.153.35-.23.603-.23.258 0 .46.077.604.23a.748.748 0 0 1 .222.55.748.748 0 0 1-.222.55c-.145.15-.346.223-.604.223-.254 0-.455-.074-.603-.222a.748.748 0 0 1-.223-.551Zm3.34 0c0-.219.074-.402.223-.55.148-.153.35-.23.603-.23.258 0 .459.077.604.23a.748.748 0 0 1 .222.55.748.748 0 0 1-.223.55c-.144.15-.345.223-.603.223-.254 0-.455-.074-.604-.222a.748.748 0 0 1-.222-.551Z" fill="#000"/></svg>