<svg width="16" height="16" viewBox="0 0 16 16" fill="none" xmlns="http://www.w3.org/2000/svg">
<path d="M3.78516 7.29688C3.78516 7.07812 3.85938 6.89453 4.00781 6.74609C4.15625 6.59375 4.35742 6.51758 4.61133 6.51758C4.86914 6.51758 5.07031 6.59375 5.21484 6.74609C5.36328 6.89453 5.4375 7.07812 5.4375 7.29688C5.4375 7.51562 5.36328 7.69922 5.21484 7.84766C5.07031 7.99609 4.86914 8.07031 4.61133 8.07031C4.35742 8.07031 4.15625 7.99609 4.00781 7.84766C3.85938 7.69922 3.78516 7.51562 3.78516 7.29688ZM7.125 7.29688C7.125 7.07812 7.19922 6.89453 7.34766 6.74609C7.49609 6.59375 7.69727 6.51758 7.95117 6.51758C8.20898 6.51758 8.41016 6.59375 8.55469 6.74609C8.70312 6.89453 8.77734 7.07812 8.77734 7.29688C8.77734 7.51562 8.70312 7.69922 8.55469 7.84766C8.41016 7.99609 8.20898 8.07031 7.95117 8.07031C7.69727 8.07031 7.49609 7.99609 7.34766 7.84766C7.19922 7.69922 7.125 7.51562 7.125 7.29688ZM10.4648 7.29688C10.4648 7.07812 10.5391 6.89453 10.6875 6.74609C10.8359 6.59375 11.0371 6.51758 11.291 6.51758C11.5488 6.51758 11.75 6.59375 11.8945 6.74609C12.043 6.89453 12.1172 7.07812 12.1172 7.29688C12.1172 7.51562 12.043 7.69922 11.8945 7.84766C11.75 7.99609 11.5488 8.07031 11.291 8.07031C11.0371 8.07031 10.8359 7.99609 10.6875 7.84766C10.5391 7.69922 10.4648 7.51562 10.4648 7.29688Z" fill="white"/>
</svg>